<?xml version="1.0" encoding="UTF-8" standalone="no"?>
<svg
   xmlns:dc="http://purl.org/dc/elements/1.1/"
   xmlns:cc="http://creativecommons.org/ns#"
   xmlns:rdf="http://www.w3.org/1999/02/22-rdf-syntax-ns#"
   xmlns:svg="http://www.w3.org/2000/svg"
   xmlns="http://www.w3.org/2000/svg"
   xmlns:sodipodi="http://sodipodi.sourceforge.net/DTD/sodipodi-0.dtd"
   xmlns:inkscape="http://www.inkscape.org/namespaces/inkscape"
   version="1.0"
   width="2.982013in"
   height="1.2655802in"
   viewBox="0 0 214.70494 91.121769"
   preserveAspectRatio="xMidYMid meet"
   id="svg869"
   sodipodi:docname="logo_text.svg"
   inkscape:version="0.92.2 2405546, 2018-03-11">
  <metadata
     id="metadata875">
    <rdf:RDF>
      <cc:Work
         rdf:about="">
        <dc:format>image/svg+xml</dc:format>
        <dc:type
           rdf:resource="http://purl.org/dc/dcmitype/StillImage" />
        <dc:title></dc:title>
      </cc:Work>
    </rdf:RDF>
  </metadata>
  <defs
     id="defs873" />
  <sodipodi:namedview
     pagecolor="#ffffff"
     bordercolor="#666666"
     borderopacity="1"
     objecttolerance="10"
     gridtolerance="10"
     guidetolerance="10"
     inkscape:pageopacity="0"
     inkscape:pageshadow="2"
     inkscape:window-width="2878"
     inkscape:window-height="1618"
     id="namedview871"
     showgrid="false"
     inkscape:zoom="3.1429687"
     inkscape:cx="196.84166"
     inkscape:cy="27.279615"
     inkscape:window-x="0"
     inkscape:window-y="0"
     inkscape:window-maximized="0"
     inkscape:current-layer="layer2"
     fit-margin-top="0"
     fit-margin-left="0"
     fit-margin-right="0"
     fit-margin-bottom="0"
     inkscape:pagecheckerboard="true"
     units="in" />
  <g
     inkscape:groupmode="layer"
     id="layer3"
     inkscape:label="Layer 3"
     transform="translate(677.92478,455.52369)">
    <circle
       style="fill:#000000;fill-opacity:0.23116886;stroke:#dd1e03;stroke-width:1.50559247;stroke-linecap:butt;stroke-miterlimit:4;stroke-dasharray:none;stroke-dashoffset:0;stroke-opacity:0.5974026"
       id="path985"
       cx="-632.36389"
       cy="-409.9628"
       r="44.80809" />
  </g>
  <g
     inkscape:groupmode="layer"
     id="layer1"
     inkscape:label="Layer 1"
     style="display:inline"
     transform="translate(677.92478,455.52369)">
    <g
       id="g964"
       transform="matrix(0.00705753,0,0,-0.00658255,-671.88733,-367.44726)"
       style="fill:#000000;stroke:none">
      <path
         id="path960"
         d="m 5491,12784 c -227,-61 -468,-365 -661,-835 -251,-611 -489,-1774 -605,-2959 -9,-91 -17,-168 -18,-171 -1,-4 -60,20 -132,53 -693,317 -1575,647 -2165,812 C 669,10029 -65,9885 7,9311 72,8800 754,8005 1945,7054 c 200,-160 481,-373 690,-523 94,-68 171,-126 173,-130 1,-4 -41,-39 -95,-77 C 2521,6189 2099,5869 1879,5693 793,4821 200,4155 33,3622 10,3549 6,3516 5,3420 c 0,-114 1,-117 38,-192 85,-173 259,-260 575,-289 325,-29 869,59 1487,242 579,171 1204,408 1929,733 93,42 170,75 172,73 1,-1 9,-78 18,-172 92,-927 267,-1906 454,-2530 158,-527 360,-920 583,-1129 171,-161 344,-195 528,-105 90,45 238,192 320,319 375,580 668,1725 841,3287 16,150 30,286 30,303 0,16 2,30 4,30 2,0 76,-32 163,-71 994,-446 1908,-764 2585,-900 271,-54 410,-70 638,-76 239,-6 356,6 488,51 325,110 414,384 248,762 -201,458 -617,935 -1402,1609 -355,304 -870,708 -1226,959 -54,38 -98,72 -98,75 1,3 33,29 72,56 626,439 1313,1005 1786,1470 506,497 803,899 913,1236 30,93 34,116 34,219 0,114 -1,117 -38,192 -88,180 -267,264 -610,289 -436,32 -1024,-85 -1857,-370 -482,-165 -984,-364 -1511,-602 -97,-43 -179,-79 -183,-79 -3,0 -6,14 -6,30 0,17 -14,153 -30,303 -173,1562 -466,2707 -841,3287 -71,111 -228,271 -305,312 -103,55 -210,70 -313,42 z m 93,-254 c 214,-103 440,-540 621,-1200 177,-649 329,-1575 404,-2475 6,-71 14,-149 17,-173 l 5,-43 -153,-73 c -139,-67 -733,-371 -835,-427 -34,-19 -46,-22 -61,-13 -62,39 -639,333 -920,470 -183,89 -335,164 -338,167 -12,12 71,770 126,1152 136,940 331,1689 575,2201 113,239 235,383 365,431 50,19 136,11 194,-17 z M 1010,9745 c 749,-80 1773,-412 2993,-972 l 187,-86 v -36 c 0,-20 -9,-148 -19,-286 -11,-137 -27,-407 -36,-600 -9,-192 -19,-387 -21,-431 l -6,-82 -86,-53 c -136,-82 -551,-351 -721,-466 l -153,-104 -42,27 c -173,114 -738,530 -1001,738 -987,780 -1627,1465 -1774,1899 -31,90 -38,192 -17,254 36,109 153,178 346,207 61,9 226,5 350,-9 z m 9620,-10 c 247,-66 319,-216 225,-470 -180,-484 -921,-1240 -2055,-2097 -264,-199 -702,-515 -736,-530 -18,-8 -45,7 -175,95 -170,115 -585,384 -721,466 l -86,53 -6,121 c -3,67 -13,264 -22,437 -8,173 -24,428 -34,565 -11,138 -20,264 -20,281 0,30 3,32 188,117 330,151 865,376 1142,479 394,146 554,199 860,287 431,123 700,176 1085,215 76,8 300,-4 355,-19 z M 4770,8405 c 230,-115 673,-345 683,-355 5,-4 -22,-25 -60,-46 -349,-193 -1040,-593 -1115,-645 -14,-11 -29,-19 -32,-19 -10,0 -7,160 9,466 17,329 43,744 51,791 l 5,31 142,-67 c 78,-38 221,-108 317,-156 z m 1873,38 c 10,-110 55,-953 51,-953 -1,0 -95,55 -210,123 -115,68 -316,184 -446,258 -131,74 -254,144 -274,155 l -36,22 135,71 c 183,97 761,391 768,391 3,0 9,-30 12,-67 z M 5643,7949 c 123,-63 1023,-578 1055,-605 10,-7 21,-935 15,-1239 l -6,-350 -141,-85 c -176,-105 -657,-382 -833,-479 l -133,-73 -87,48 c -310,167 -1269,734 -1285,758 -10,14 -10,701 -1,1024 l 6,242 246,147 c 424,252 449,267 741,430 309,174 361,202 373,203 4,0 27,-10 50,-21 z m -1541,-1396 -4,-552 -76,48 c -120,76 -619,402 -700,458 l -72,51 212,140 c 256,167 642,414 643,409 0,-1 -1,-250 -3,-554 z m 3233,399 c 333,-212 605,-394 600,-402 -6,-9 -444,-301 -695,-463 l -145,-94 -2,41 c -2,23 -4,274 -5,558 l -3,517 35,-22 c 19,-11 116,-72 215,-135 z M 3078,6217 c 200,-138 632,-422 847,-557 99,-62 181,-114 183,-115 2,-2 8,-108 13,-237 8,-214 29,-594 45,-828 l 7,-96 -94,-43 C 2817,3759 1951,3451 1145,3301 c -205,-39 -582,-51 -695,-22 -244,62 -323,190 -259,421 97,352 705,1043 1489,1691 428,354 1220,946 1245,931 6,-3 74,-50 153,-105 z m 5362,-7 c 452,-318 1025,-768 1370,-1075 186,-165 530,-504 664,-655 379,-424 546,-703 546,-910 0,-173 -103,-264 -342,-301 -93,-15 -407,-5 -540,16 -538,85 -1167,273 -1928,577 -345,138 -916,387 -1142,499 -55,27 -53,16 -38,199 8,100 15,232 46,865 l 6,120 191,120 c 183,114 800,522 937,618 l 64,46 31,-23 c 16,-12 77,-56 135,-96 z M 4469,5325 c 118,-70 330,-194 472,-275 l 259,-148 -133,-70 c -72,-38 -277,-142 -454,-231 l -322,-160 -6,42 c -19,138 -53,983 -39,975 5,-3 105,-63 223,-133 z m 2224,-72 c -1,-32 -10,-200 -19,-373 -9,-173 -17,-316 -18,-317 -2,-2 -629,315 -654,331 -9,5 19,26 90,65 57,32 216,124 353,204 138,81 250,147 251,147 0,0 -1,-26 -3,-57 z m -888,-679 c 110,-58 341,-175 513,-261 l 313,-156 -5,-41 c -3,-23 -11,-99 -17,-171 C 6534,3045 6382,2119 6205,1470 6024,810 5799,375 5584,269 c -74,-36 -172,-34 -239,5 -119,70 -218,196 -320,409 -239,498 -440,1265 -575,2202 -51,354 -139,1150 -128,1159 1,2 77,38 168,81 219,103 669,329 905,454 105,55 195,101 200,101 6,0 100,-48 210,-106 z"
         inkscape:connector-curvature="0" />
      <path
         id="path962"
         d="m 5435,6981 c -108,-31 -175,-71 -261,-156 -131,-130 -192,-285 -181,-460 24,-351 322,-599 675,-563 342,36 590,380 518,718 -26,122 -76,212 -170,305 -87,86 -164,131 -273,159 -81,21 -230,20 -308,-3 z"
         inkscape:connector-curvature="0" />
    </g>
  </g>
  <g
     inkscape:groupmode="layer"
     id="layer2"
     inkscape:label="Layer 2"
     transform="translate(677.92478,455.52369)">
    <g
       style="fill:#dd1d02;fill-opacity:1;stroke:none"
       transform="matrix(0.00452396,0,0,-0.00452396,-651.2664,-383.6711)"
       id="g867">
      <path
         d="m 1550,12774 c -73,-27 -97,-50 -189,-184 -37,-54 -70,-116 -89,-170 -35,-101 -80,-210 -94,-227 -6,-7 -23,-13 -39,-13 -24,0 -35,9 -59,47 -55,87 -65,136 -52,264 10,94 10,116 -2,127 -11,12 -18,11 -42,-2 -103,-56 -144,-168 -144,-396 0,-137 0,-140 -24,-155 -34,-22 -59,-7 -78,47 -32,86 -38,132 -27,194 26,149 25,155 -33,131 -28,-12 -38,-26 -66,-94 -46,-113 -55,-177 -48,-319 6,-105 5,-124 -9,-138 -9,-9 -19,-16 -21,-16 -19,0 -86,46 -121,82 -45,46 -63,83 -63,128 0,72 -54,30 -83,-64 -26,-80 -23,-230 4,-292 20,-44 21,-59 15,-164 -3,-63 -11,-144 -17,-180 -19,-117 18,-275 86,-365 14,-17 25,-38 25,-46 0,-8 -21,-25 -46,-38 -25,-14 -85,-63 -134,-110 l -88,-86 -46,-125 c -25,-69 -48,-137 -52,-152 -6,-26 -4,-28 27,-28 23,0 42,9 65,31 38,36 52,40 339,85 256,40 369,44 384,15 15,-28 -3,-79 -59,-165 -105,-161 -152,-293 -190,-541 -18,-115 -21,-168 -18,-300 5,-147 7,-165 32,-224 15,-36 39,-80 54,-99 37,-49 114,-85 192,-92 l 65,-5 3,-90 c 5,-116 -14,-279 -44,-381 -25,-88 -122,-315 -229,-539 -82,-171 -142,-335 -155,-424 -5,-36 -12,-248 -14,-471 l -4,-405 68,-380 68,-380 121,-258 c 95,-202 154,-312 273,-504 l 152,-246 197,-201 c 181,-185 220,-219 460,-401 l 263,-199 147,-48 147,-49 113,-280 114,-280 190,-212 c 112,-125 241,-282 314,-383 116,-160 127,-180 183,-322 l 59,-151 85,-26 84,-26 v -175 c 0,-100 -9,-269 -21,-392 -27,-291 -77,-694 -86,-703 -5,-3 -62,-16 -128,-28 -212,-39 -253,-52 -328,-109 -38,-29 -81,-59 -98,-67 -16,-9 -38,-33 -49,-55 -11,-21 -24,-41 -29,-44 -4,-3 -37,6 -72,21 -47,19 -83,26 -136,27 l -73,1 -80,-83 c -61,-63 -83,-93 -93,-130 l -14,-47 -64,-8 c -120,-15 -181,-30 -215,-54 -20,-13 -52,-32 -73,-43 -22,-10 -62,-45 -90,-77 -52,-58 -67,-92 -33,-75 30,16 93,21 120,10 128,-50 224,-57 512,-33 102,9 205,17 230,18 l 44,2 -3,-72 c -3,-86 44,-325 64,-323 6,0 15,26 21,58 16,82 30,112 77,161 60,62 103,86 246,141 160,61 343,158 397,211 23,23 50,58 59,79 21,47 49,60 126,60 44,0 73,-7 109,-25 34,-17 66,-25 102,-25 29,0 75,-7 102,-15 27,-8 55,-15 63,-15 22,0 14,28 -22,76 -19,25 -35,52 -35,60 0,23 40,41 180,79 173,47 232,70 258,98 32,34 62,113 62,163 0,25 5,44 11,44 6,0 43,-33 83,-73 97,-100 236,-182 324,-192 34,-4 84,-18 110,-31 26,-13 49,-24 50,-24 7,0 -9,124 -21,164 -14,51 -138,151 -262,213 -165,82 -203,110 -231,164 -31,61 -45,176 -23,190 8,5 34,9 58,9 51,0 137,43 147,72 9,29 -29,63 -105,93 -127,51 -148,95 -137,288 4,67 16,239 27,382 23,280 21,428 -4,487 -15,36 -14,49 24,274 22,131 42,240 44,244 3,4 100,51 217,105 198,90 466,231 496,259 7,7 33,79 57,160 24,81 46,151 50,154 4,4 36,-24 71,-62 35,-38 66,-68 68,-65 2,2 53,106 114,230 60,124 114,229 119,232 6,4 55,-27 109,-68 53,-41 100,-72 104,-70 4,2 10,52 13,111 3,58 9,110 15,116 6,6 42,-19 103,-71 51,-45 96,-78 99,-74 4,5 24,50 45,101 21,50 44,92 51,92 7,0 38,-30 70,-66 39,-45 60,-61 64,-52 4,7 13,49 19,93 17,108 21,125 34,125 5,0 41,-18 79,-40 76,-44 73,-45 83,43 4,32 12,60 18,63 7,2 53,-12 102,-32 l 89,-36 36,39 c 19,21 52,59 72,83 50,60 58,46 58,-98 0,-108 1,-113 22,-121 23,-8 71,3 95,22 30,23 76,124 82,182 4,42 11,61 21,63 8,1 54,-22 102,-53 48,-30 92,-55 97,-55 6,0 24,45 41,100 18,55 36,102 41,106 5,3 18,-4 27,-16 l 18,-22 29,37 c 51,68 130,360 171,635 l 35,235 47,43 c 54,50 152,112 176,112 21,0 21,-58 1,-235 -8,-71 -15,-166 -15,-210 0,-81 18,-166 37,-172 24,-8 56,41 104,162 50,126 52,137 80,360 16,127 31,235 33,241 4,12 195,150 221,160 21,8 20,-48 -5,-256 -11,-91 -20,-180 -20,-197 0,-31 2,-33 33,-33 55,0 117,89 194,284 63,156 65,162 92,365 21,151 34,218 50,249 12,24 36,109 53,189 l 31,147 -23,78 -23,79 51,127 c 28,70 67,172 87,227 l 36,100 -47,137 -46,138 32,57 c 54,96 99,163 110,163 23,0 41,-69 65,-255 26,-194 26,-204 16,-484 -9,-277 -11,-292 -50,-480 -23,-106 -50,-227 -60,-268 -24,-94 -17,-123 32,-123 27,0 43,11 98,68 63,64 70,75 148,261 59,140 93,241 125,365 42,160 45,185 56,381 11,199 13,212 37,245 14,19 76,112 137,205 l 113,170 47,240 48,239 -6,311 c -3,170 -8,334 -12,363 -4,34 -2,52 5,52 6,0 28,-24 50,-52 33,-44 48,-82 90,-228 29,-101 63,-253 81,-360 l 32,-185 -12,-210 c -12,-203 -14,-216 -62,-395 -43,-159 -59,-202 -114,-305 -51,-94 -64,-128 -62,-155 3,-34 4,-35 52,-38 43,-3 57,2 128,45 66,39 96,66 164,148 73,87 93,121 160,264 l 76,164 21,176 c 17,146 21,230 21,491 v 315 l -41,165 c -49,202 -177,520 -286,712 -65,114 -89,145 -245,311 -153,165 -194,202 -376,340 l -203,155 -190,80 -191,80 -248,38 c -317,48 -359,50 -616,30 -193,-15 -235,-22 -443,-72 l -230,-56 -180,-108 c -244,-147 -437,-312 -679,-579 -138,-152 -209,-241 -330,-414 l -154,-221 -208,-471 c -156,-353 -222,-515 -264,-650 -32,-99 -70,-207 -85,-240 -14,-33 -68,-170 -119,-306 -51,-135 -113,-283 -137,-329 -56,-106 -91,-132 -230,-171 -92,-26 -120,-29 -245,-29 -136,0 -266,14 -428,45 -128,25 -293,130 -467,297 -65,62 -81,85 -107,149 -18,42 -82,182 -143,310 -131,275 -279,669 -394,1048 -43,140 -117,363 -165,495 -73,198 -105,270 -180,405 -137,246 -221,361 -347,478 -216,201 -627,463 -906,579 -82,34 -153,66 -159,72 -17,17 19,21 237,26 194,4 204,5 351,43 136,36 162,46 256,104 183,112 318,284 364,462 33,128 32,232 -2,329 -33,92 -74,170 -88,165 -6,-2 -14,-24 -17,-49 -16,-109 -58,-157 -262,-301 -66,-47 -165,-77 -252,-77 -41,0 -44,2 -56,37 -19,60 -5,304 22,359 41,85 80,124 179,178 51,28 95,56 97,62 2,7 -3,19 -12,28 -19,19 -89,21 -205,6 -126,-16 -353,-137 -412,-219 -47,-66 -130,-160 -154,-176 -49,-32 -72,7 -104,166 -9,46 -8,70 6,130 18,82 48,136 105,190 29,26 37,40 32,57 -7,28 -28,27 -113,-4 z M 8300,9943 c 0,-16 -67,-127 -82,-137 -20,-12 -183,45 -183,65 0,8 39,25 105,46 103,31 160,40 160,26 z m 668,-99 c 115,-59 137,-75 230,-167 71,-70 133,-144 196,-237 l 93,-135 31,-184 31,-185 -26,-217 c -26,-219 -34,-253 -52,-234 -5,6 -42,93 -81,194 -79,200 -52,158 -334,526 l -89,116 12,100 c 14,116 7,214 -20,277 -11,25 -48,71 -89,111 -51,48 -69,72 -64,84 3,10 13,17 20,17 8,0 72,-30 142,-66 z m -4838,-6871 73,-86 27,-131 c 25,-117 28,-161 34,-406 4,-151 16,-420 27,-598 22,-363 21,-381 -37,-432 -85,-74 -202,-100 -454,-100 h -160 v 49 c 0,27 4,61 10,75 9,23 15,26 62,26 71,0 103,17 103,55 0,25 -7,34 -43,53 -49,27 -102,93 -102,127 0,12 12,78 26,146 14,68 51,264 83,434 l 57,311 90,105 91,106 7,169 c 7,166 10,184 25,184 4,0 40,-39 81,-87 z M 3888,992 c -2,-4 -14,-26 -28,-49 -23,-39 -28,-43 -66,-43 -82,0 -181,55 -160,89 7,11 259,14 254,3 z m -527,-24 c 6,-60 -35,-120 -95,-143 -42,-16 -54,-16 -183,-1 -148,17 -233,39 -233,62 0,20 46,28 80,14 41,-17 94,-7 138,27 30,23 53,29 132,39 134,16 160,16 161,2 z M 2457,735 c 31,-8 96,-15 144,-15 135,0 192,-32 82,-46 -59,-7 -303,9 -323,21 -8,5 -4,15 11,31 12,13 24,24 25,24 2,0 29,-7 61,-15 z"
         id="path865"
         inkscape:connector-curvature="0"
         style="fill:#dd1d02;fill-opacity:1" />
    </g>
    <text
       xml:space="preserve"
       style="font-style:normal;font-variant:normal;font-weight:normal;font-stretch:normal;font-size:10px;line-height:1.25;font-family:'DejaVu Sans Mono';-inkscape-font-specification:'DejaVu Sans Mono, Normal';font-variant-ligatures:normal;font-variant-caps:normal;font-variant-numeric:normal;font-feature-settings:normal;text-align:start;letter-spacing:0px;word-spacing:0px;writing-mode:lr-tb;text-anchor:start;fill:#000000;fill-opacity:1;stroke:none;stroke-width:0.75"
       x="2032.8881"
       y="350.52716"
       id="text1027"><tspan
         sodipodi:role="line"
         id="tspan1025"
         x="2032.8881"
         y="359.37482"
         style="stroke-width:0.75" /></text>
    <text
       xml:space="preserve"
       style="font-style:normal;font-variant:normal;font-weight:normal;font-stretch:normal;font-size:10px;line-height:1.25;font-family:'DejaVu Sans Mono';-inkscape-font-specification:'DejaVu Sans Mono, Normal';font-variant-ligatures:normal;font-variant-caps:normal;font-variant-numeric:normal;font-feature-settings:normal;text-align:start;letter-spacing:0px;word-spacing:0px;writing-mode:lr-tb;text-anchor:start;fill:#000000;fill-opacity:1;stroke:none;stroke-width:0.75"
       x="-576.61047"
       y="-395.90085"
       id="text1053"><tspan
         sodipodi:role="line"
         id="tspan1051"
         x="-576.61047"
         y="-395.90085"
         style="font-style:normal;font-variant:normal;font-weight:normal;font-stretch:normal;font-size:36px;font-family:'DejaVu Sans Mono';-inkscape-font-specification:'DejaVu Sans Mono, Normal';font-variant-ligatures:normal;font-variant-caps:normal;font-variant-numeric:normal;font-feature-settings:normal;text-align:start;writing-mode:lr-tb;text-anchor:start;stroke-width:0.75">Gallo</tspan></text>
  </g>
</svg>
